<?xml version="1.0" standalone="no"?>
<!DOCTYPE svg PUBLIC "-//W3C//DTD SVG 20010904//EN"
 "http://www.w3.org/TR/2001/REC-SVG-20010904/DTD/svg10.dtd">
<svg version="1.0" xmlns="http://www.w3.org/2000/svg"
 width="626.000000pt" height="417.000000pt" viewBox="0 0 626.000000 417.000000"
 preserveAspectRatio="xMidYMid meet">

<g transform="translate(0.000000,417.000000) scale(0.100000,-0.100000)"
fill="#000000" stroke="none">
<path d="M3460 3833 c-169 -151 -394 -279 -620 -353 -176 -58 -294 -80 -465
-87 -147 -6 -150 -7 -177 -34 l-28 -27 0 -174 c0 -177 15 -515 26 -600 3 -26
10 -46 16 -45 6 1 13 -4 16 -12 3 -10 0 -12 -13 -8 -14 6 -16 2 -11 -30 3 -21
8 -59 12 -85 l6 -48 -198 -2 -199 -3 0 -110 0 -110 30 -6 c17 -4 146 -7 288
-8 l257 -1 0 -26 c0 -28 36 -94 51 -94 35 0 92 -173 65 -200 -6 -6 -141 -10
-383 -10 l-373 0 0 -229 0 -230 -27 -3 c-16 -3 -3 -5 28 -5 100 -2 207 -45
289 -116 35 -30 120 -153 120 -174 0 -7 4 -13 8 -13 11 0 32 -129 28 -172 l-4
-37 151 -3 c84 -2 155 -2 160 0 4 2 7 157 7 345 l1 342 19 -35 c18 -32 19 -59
20 -342 l0 -308 376 -2 377 -3 -2 -101 -2 -100 103 -70 103 -69 -60 -5 c-47
-4 -61 -9 -63 -23 -3 -16 15 -17 278 -17 263 0 281 1 278 18 -3 15 -19 17
-131 20 -70 1 -127 6 -127 10 1 4 45 32 98 63 282 165 539 396 747 674 94 125
230 348 216 353 -5 2 -23 -4 -40 -13 -41 -21 -39 -6 4 34 19 17 44 49 55 71
13 25 27 40 39 40 29 0 112 223 119 319 4 64 7 72 18 57 11 -16 14 -14 23 20
99 369 135 728 112 1127 -14 253 -22 284 -81 303 -19 7 -97 17 -173 23 -258
21 -560 83 -782 161 -114 40 -278 122 -380 188 -43 29 -87 52 -99 51 -11 0
-59 -34 -106 -76z m60 -157 c0 -2 -8 -10 -17 -17 -16 -13 -17 -12 -4 4 13 16
21 21 21 13z m-115 -36 c3 -5 -1 -10 -10 -10 -9 0 -13 5 -10 10 3 6 8 10 10
10 2 0 7 -4 10 -10z m-95 -10 c0 -5 -7 -10 -16 -10 -8 0 -12 5 -9 10 3 6 10
10 16 10 5 0 9 -4 9 -10z m47 4 c-3 -3 -12 -4 -19 -1 -8 3 -5 6 6 6 11 1 17
-2 13 -5z m108 -4 c-3 -5 -12 -7 -20 -3 -21 7 -19 13 6 13 11 0 18 -4 14 -10z
m-205 -10 c0 -5 -8 -10 -17 -10 -15 0 -16 2 -3 10 19 12 20 12 20 0z m247 4
c-3 -3 -12 -4 -19 -1 -8 3 -5 6 6 6 11 1 17 -2 13 -5z m43 -14 c0 -5 -2 -10
-4 -10 -3 0 -8 5 -11 10 -3 6 -1 10 4 10 6 0 11 -4 11 -10z m-340 -10 c0 -5
-4 -10 -10 -10 -5 0 -10 5 -10 10 0 6 5 10 10 10 6 0 10 -4 10 -10z m390 -10
c0 -5 -2 -10 -4 -10 -3 0 -8 5 -11 10 -3 6 -1 10 4 10 6 0 11 -4 11 -10z
m-430 -9 c0 -12 -20 -25 -27 -18 -7 7 6 27 18 27 5 0 9 -4 9 -9z m-40 -30 c0
-5 -7 -11 -15 -15 -15 -5 -20 5 -8 17 9 10 23 9 23 -2z m559 -826 c24 14 37
-25 40 -121 1 -54 4 -101 6 -104 2 -3 -26 -5 -61 -5 l-64 0 0 51 c0 107 12
173 31 179 18 6 19 24 19 379 0 206 3 389 8 407 4 19 8 -152 10 -379 1 -244 6
-411 11 -407z m-599 796 c0 -12 -20 -25 -27 -18 -7 7 6 27 18 27 5 0 9 -4 9
-9z m-44 -46 c-3 -9 -11 -13 -16 -10 -8 5 -7 11 1 21 14 18 24 11 15 -11z
m-30 -40 c-3 -9 -11 -13 -16 -10 -8 5 -7 11 1 21 14 18 24 11 15 -11z m-22
-40 c-4 -8 -10 -15 -15 -15 -5 0 -9 7 -9 15 0 8 7 15 15 15 9 0 12 -6 9 -15z
m-24 -44 c-6 -13 -17 -17 -30 -14 -21 6 -21 6 2 18 33 19 40 18 28 -4z m-24
-58 c-10 -10 -19 5 -10 18 6 11 8 11 12 0 2 -7 1 -15 -2 -18z m-6 -38 c0 -8
-4 -15 -10 -15 -5 0 -10 7 -10 15 0 8 5 15 10 15 6 0 10 -7 10 -15z m-15 -54
c-9 -16 -25 -3 -18 15 4 10 9 12 15 6 6 -6 7 -15 3 -21z m-718 -17 c-3 -3 -12
-4 -19 -1 -8 3 -5 6 6 6 11 1 17 -2 13 -5z m708 -33 c-9 -16 -25 -3 -18 15 4
10 9 12 15 6 6 -6 7 -15 3 -21z m-570 -1 c3 -5 2 -10 -4 -10 -5 0 -13 5 -16
10 -3 6 -2 10 4 10 5 0 13 -4 16 -10z m558 -45 c-3 -8 -9 -15 -14 -15 -10 0
-12 24 -3 33 11 11 24 -3 17 -18z m-17 -62 c-11 -11 -19 6 -11 24 8 17 8 17
12 0 3 -10 2 -21 -1 -24z m-6 -27 c0 -8 -4 -18 -10 -21 -5 -3 -10 3 -10 14 0
12 5 21 10 21 6 0 10 -6 10 -14z m-16 -51 c-4 -8 -10 -15 -15 -15 -5 0 -9 7
-9 15 0 8 7 15 15 15 9 0 12 -6 9 -15z m-21 -50 c-3 -8 -9 -15 -14 -15 -10 0
-12 24 -3 33 11 11 24 -3 17 -18z m-22 -48 c-13 -13 -26 -3 -16 12 3 6 11 8
17 5 6 -4 6 -10 -1 -17z m-25 -42 c-3 -9 -11 -13 -16 -10 -8 5 -7 11 1 21 14
18 24 11 15 -11z m-16 -34 c0 -12 -20 -25 -27 -18 -7 7 6 27 18 27 5 0 9 -4 9
-9z m-30 -40 c0 -12 -20 -25 -27 -18 -7 7 6 27 18 27 5 0 9 -4 9 -9z m-30 -40
c0 -12 -20 -25 -27 -18 -7 7 6 27 18 27 5 0 9 -4 9 -9z m-40 -46 c-7 -9 -15
-13 -17 -11 -7 7 7 26 19 26 6 0 6 -6 -2 -15z m-35 -35 c-3 -5 -10 -10 -16
-10 -5 0 -9 5 -9 10 0 6 7 10 16 10 8 0 12 -4 9 -10z m-35 -29 c0 -5 -7 -11
-15 -15 -15 -5 -20 5 -8 17 9 10 23 9 23 -2z m-45 -31 c-3 -5 -10 -10 -16 -10
-5 0 -9 5 -9 10 0 6 7 10 16 10 8 0 12 -4 9 -10z m-41 -19 c3 -5 -1 -11 -9
-15 -15 -6 -29 7 -18 18 9 9 21 8 27 -3z m-44 -20 c0 -12 -20 -25 -27 -18 -7
7 6 27 18 27 5 0 9 -4 9 -9z m-50 -21 c0 -5 -7 -10 -15 -10 -8 0 -15 5 -15 10
0 6 7 10 15 10 8 0 15 -4 15 -10z m-150 -10 c0 -5 -7 -10 -15 -10 -8 0 -15 5
-15 10 0 6 7 10 15 10 8 0 15 -4 15 -10z m50 0 c0 -5 -7 -10 -15 -10 -8 0 -15
5 -15 10 0 6 7 10 15 10 8 0 15 -4 15 -10z m50 0 c0 -5 -7 -10 -15 -10 -8 0
-15 5 -15 10 0 6 7 10 15 10 8 0 15 -4 15 -10z m1470 -49 c6 -12 10 -135 10
-331 l0 -310 -186 2 -185 3 0 319 c0 254 2 321 13 327 7 5 86 9 175 9 150 0
163 -1 173 -19z m-1800 -231 l0 -80 -75 0 -75 0 0 73 c0 41 3 77 7 80 3 4 37
7 75 7 l68 0 0 -80z m800 0 l0 -80 -75 0 -75 0 0 80 0 80 75 0 75 0 0 -80z
m344 -136 c3 -9 6 -26 6 -38 0 -13 24 -50 55 -86 54 -62 55 -65 55 -126 0 -58
-2 -62 -26 -68 -14 -4 -182 -6 -375 -6 l-349 1 0 60 c0 70 15 104 71 160 30
30 39 47 39 72 0 19 3 37 7 40 3 4 120 7 259 7 220 0 253 -2 258 -16z m458
-341 c-2 -16 2 -23 15 -24 17 -1 17 -2 1 -6 -17 -4 -18 -34 -18 -454 l0 -450
-82 3 -83 3 -3 465 c-1 256 0 471 3 478 3 9 27 12 87 10 80 -3 83 -4 80 -25z
m208 -453 l0 -480 -85 0 -85 0 0 480 0 480 85 0 85 0 0 -480z m-180 450 c0 -5
-5 -10 -11 -10 -5 0 -7 5 -4 10 3 6 8 10 11 10 2 0 4 -4 4 -10z m-1562 -142
c2 -10 -4 -15 -15 -14 -13 1 -19 -7 -21 -32 -3 -27 1 -35 17 -39 29 -7 27 -35
-1 -31 -28 4 -52 50 -44 83 12 47 57 70 64 33z m69 5 c2 -6 -5 -13 -17 -16
-28 -7 -29 -67 0 -74 28 -7 26 -35 -2 -31 -29 4 -53 47 -45 80 12 46 54 73 64
41z m537 1 c3 -9 6 -28 7 -42 l1 -27 10 30 c5 17 11 36 14 43 9 29 22 0 14
-31 -4 -17 -11 -44 -14 -59 -10 -45 -33 -34 -45 22 -6 28 -11 58 -11 65 0 20
16 19 24 -1z m108 -30 c4 -21 10 -49 13 -61 4 -16 1 -23 -10 -23 -8 0 -15 7
-15 15 0 20 -10 19 -26 -2 -7 -10 -15 -15 -19 -12 -5 6 8 83 20 117 9 25 29 6
37 -34z m86 29 c2 -8 -5 -13 -17 -13 -14 0 -23 -8 -27 -25 -7 -27 10 -55 32
-55 19 0 18 -19 -1 -27 -44 -16 -74 79 -38 119 18 20 44 21 51 1z m70 0 c2 -8
-5 -13 -17 -13 -14 0 -23 -8 -27 -25 -7 -27 10 -55 32 -55 19 0 18 -19 -1 -27
-44 -16 -74 79 -38 119 18 20 44 21 51 1z m32 -48 c0 -37 -4 -65 -10 -65 -6 0
-10 28 -10 65 0 37 4 65 10 65 6 0 10 -28 10 -65z m48 38 c9 -25 11 -25 11 -6
1 12 6 25 11 28 6 4 10 -19 10 -60 0 -74 -15 -84 -36 -24 l-12 34 -1 -37 c-2
-67 -21 -41 -21 27 0 49 3 65 14 65 8 0 19 -12 24 -27z m102 12 c0 -8 -7 -15
-15 -15 -8 0 -15 -4 -15 -10 0 -5 7 -10 15 -10 8 0 15 -7 15 -15 0 -8 -7 -15
-15 -15 -8 0 -15 -7 -15 -15 0 -8 7 -15 15 -15 8 0 15 -4 15 -10 0 -5 -11 -10
-25 -10 -24 0 -25 2 -25 65 0 63 1 65 25 65 16 0 25 -6 25 -15z m-1240 -17 c0
-13 5 -30 10 -38 7 -11 10 -7 10 17 0 29 15 52 26 41 2 -3 -2 -31 -9 -64 -16
-70 -37 -78 -49 -19 -4 22 -10 50 -13 63 -4 15 -1 22 10 22 9 0 15 -9 15 -22z
m109 -28 c6 -28 11 -58 11 -65 0 -23 -17 -17 -24 8 l-6 22 -18 -23 c-25 -32
-31 -20 -20 36 13 66 16 72 32 72 9 0 18 -18 25 -50z m181 -15 c0 -37 -4 -65
-10 -65 -6 0 -10 28 -10 65 0 37 4 65 10 65 6 0 10 -28 10 -65z m54 33 l14
-33 1 33 c2 58 21 33 21 -27 0 -70 -14 -86 -35 -39 -14 32 -14 33 -15 6 0 -15
-4 -29 -9 -32 -9 -6 -20 93 -13 114 7 19 22 10 36 -22z m106 23 c0 -5 -10 -12
-22 -15 -23 -6 -23 -6 -3 -22 19 -14 19 -16 3 -25 -24 -13 -23 -29 2 -29 11 0
20 -7 20 -15 0 -10 -10 -15 -30 -15 l-30 0 0 65 0 65 30 0 c17 0 30 -4 30 -9z
m1287 -188 c-3 -10 -5 -4 -5 12 0 17 2 24 5 18 2 -7 2 -21 0 -30z m703 -207
c0 -2 -8 -10 -17 -17 -16 -13 -17 -12 -4 4 13 16 21 21 21 13z m-40 -49 c0 -2
-12 -14 -27 -28 l-28 -24 24 28 c23 25 31 32 31 24z m-100 -110 c0 -1 -26 -27
-57 -57 l-58 -55 55 58 c50 53 60 62 60 54z m-150 -140 c0 -2 -12 -14 -27 -28
l-28 -24 24 28 c23 25 31 32 31 24z m-80 -71 c0 -2 -8 -10 -17 -17 -16 -13
-17 -12 -4 4 13 16 21 21 21 13z m-52 -48 c2 -9 -5 -18 -14 -22 -14 -6 -15 -4
-4 10 12 13 11 17 -1 26 -12 8 -12 9 1 5 8 -2 16 -11 18 -19z m-44 -23 c-4 -8
-8 -15 -10 -15 -2 0 -4 7 -4 15 0 8 4 15 10 15 5 0 7 -7 4 -15z"/>
<path d="M1083 2093 c-35 -7 -63 -50 -63 -97 0 -49 -20 -81 -63 -101 -18 -9
-43 -22 -57 -30 -15 -9 -52 -15 -94 -15 -66 0 -70 -1 -106 -38 -106 -106 -24
-284 133 -286 52 -1 52 -1 140 109 17 21 43 39 65 45 21 5 42 13 48 17 35 24
44 98 21 174 -18 60 -8 83 46 107 56 25 63 36 42 68 -13 21 -76 58 -87 53 -2
-1 -13 -4 -25 -6z m-353 -297 c0 -2 -8 -10 -17 -17 -16 -13 -17 -12 -4 4 13
16 21 21 21 13z"/>
<path d="M5202 2080 c-27 -43 -5 -74 64 -91 49 -13 48 -12 34 -40 -9 -16 -7
-19 10 -19 28 0 25 -18 -4 -32 -27 -12 -43 -38 -23 -38 7 0 26 9 42 20 17 12
45 27 63 35 31 14 42 38 22 50 -6 4 -7 13 -1 24 16 29 2 61 -29 68 -16 3 -30
13 -33 24 -6 22 -46 26 -65 7 -9 -9 -15 -9 -24 0 -18 18 -42 15 -56 -8z"/>
<path d="M1760 1176 c0 -42 2 -46 24 -46 31 0 40 -14 25 -38 -8 -13 -19 -17
-32 -14 -19 5 -19 2 -13 -44 13 -93 14 -104 5 -104 -5 0 -9 -15 -9 -33 0 -30
2 -32 33 -31 31 2 33 0 29 -26 -5 -32 -28 -46 -48 -29 -11 9 -14 7 -14 -10 0
-19 5 -21 63 -20 44 0 56 3 42 9 -16 7 -17 9 -3 9 9 1 18 11 20 23 2 12 15 29
30 37 34 20 73 7 96 -32 15 -24 15 -29 2 -37 -10 -7 4 -10 47 -10 l62 0 3 58
c3 66 -26 164 -65 215 -45 59 -103 113 -133 124 -45 16 -96 31 -131 38 l-33 7
0 -46z m163 -147 c30 -16 37 -28 37 -65 0 -41 -32 -70 -73 -65 -41 4 -67 32
-67 71 0 56 52 85 103 59z"/>
<path d="M1404 1158 c-30 -34 -47 -58 -42 -58 3 0 19 18 37 40 34 43 38 55 5
18z"/>
<path d="M1292 950 c0 -14 2 -19 5 -12 2 6 2 18 0 25 -3 6 -5 1 -5 -13z"/>
<path d="M1282 895 c0 -16 2 -22 5 -12 2 9 2 23 0 30 -3 6 -5 -1 -5 -18z"/>
<path d="M1282 785 c0 -16 2 -22 5 -12 2 9 2 23 0 30 -3 6 -5 -1 -5 -18z"/>
<path d="M2191 753 c-1 -6 -4 -20 -7 -30 -5 -17 -5 -17 6 0 6 10 9 23 6 30 -3
9 -5 9 -5 0z"/>
<path d="M1291 734 c0 -11 3 -14 6 -6 3 7 2 16 -1 19 -3 4 -6 -2 -5 -13z"/>
<path d="M1330 630 c6 -11 13 -20 16 -20 2 0 0 9 -6 20 -6 11 -13 20 -16 20
-2 0 0 -9 6 -20z"/>
<path d="M2132 610 c-18 -29 -15 -38 4 -12 9 13 14 25 12 27 -2 2 -9 -5 -16
-15z"/>
<path d="M1361 585 c23 -35 73 -86 104 -107 20 -14 18 -9 -9 14 -22 19 -55 52
-74 74 -19 21 -29 30 -21 19z"/>
<path d="M2095 559 c-4 -6 -5 -12 -2 -15 2 -3 7 2 10 11 7 17 1 20 -8 4z"/>
<path d="M927 523 c-2 -5 -7 -21 -11 -38 -5 -24 -4 -26 4 -12 16 26 27 21 40
-17 10 -31 26 -46 51 -46 5 0 -7 22 -26 49 -19 26 -35 53 -35 60 0 12 -17 15
-23 4z"/>
<path d="M1105 451 c-2 -9 -1 -29 4 -46 8 -25 9 -26 10 -7 1 27 12 28 35 3 18
-19 63 -34 71 -22 2 4 -9 13 -25 20 -16 7 -43 25 -59 40 -26 24 -31 26 -36 12z"/>
<path d="M1500 455 c0 -7 61 -37 66 -33 2 3 -12 12 -31 21 -19 9 -35 15 -35
12z"/>
<path d="M5335 420 c-22 -11 -53 -31 -70 -45 l-30 -24 92 -1 c50 0 94 4 97 9
10 16 -6 72 -19 67 -7 -2 -17 0 -22 5 -5 5 -25 1 -48 -11z"/>
<path d="M5589 402 c-32 -42 -25 -52 36 -52 53 0 55 1 55 28 0 37 -10 47 -43
47 -19 1 -35 -8 -48 -23z"/>
<path d="M1618 403 c6 -2 18 -2 25 0 6 3 1 5 -13 5 -14 0 -19 -2 -12 -5z"/>
<path d="M1678 393 c12 -2 30 -2 40 0 9 3 -1 5 -23 4 -22 0 -30 -2 -17 -4z"/>
<path d="M1793 393 c9 -2 23 -2 30 0 6 3 -1 5 -18 5 -16 0 -22 -2 -12 -5z"/>
</g>
</svg>
